<svg height="512" width="512" xmlns="http://www.w3.org/2000/svg"><path d="m321.9571228 275.5917053 47.6731567 88.8157654-50.938446 93.387146h35.9181213l35.2651062-62.6934814 35.2650757 62.6934814h35.9181213l-50.938446-93.387146 47.0201111-88.8157654h-35.9181519l-31.3467102 58.1220703-31.3467407-58.1220703zm-99.264679 3.918335c38.6667175-14.1896667 68.353302 3.9183655 77.06073 24.8161926l-28.0814514 18.2855835c-4.1518555-7.4924011-12.9993896-15.1542053-23.2150879-15.7014465-9.2642822-.4963074-17.8757629 4.3454895-18.1511078 16.8741455.5501404 18.2557373 24.5546875 18.2530518 53.3388824 36.4869385 21.0874634 13.3582458 25.036377 23.5680847 26.9858093 42.0225525 1.4448242 13.6776733-1.1278687 37.3110962-28.0401306 49.2532349-29.2815704 12.9934692-81.2425079 8.2570801-99.0810699-30.9768677l29.3875732-16.9794922c14.6937866 27.9181824 52.8023834 27.850769 60.2847443 9.4645996 7.3066711-17.9543457-14.7340088-24.9747009-42.0865173-37.1038513-11.8968048-6.1347046-30.3064423-15.7984009-35.8307648-39.4079285-4.1690063-17.8172913-.4490051-44.7391358 27.4283905-57.0336609zm-140.407257 127.3461304-30.0406227 18.285614c12.5169258 23.6188965 32.6605492 34.3313599 57.4690132 33.6324158 31.8320465-.8967896 49.165863-18.9852905 52.8976288-46.693573v-135.1828004h-36.5711975v131.917511s-1.7554016 9.7345581-7.3468933 13.3876648c-6.122406 4-15.5153427 3.4299011-19.9998703 1.8775635-8.4897462-2.9387817-16.4080582-17.2243957-16.4080582-17.2243957zm429.7148132 47.6731567v-397.0586662c-.680603-27.2471828-18.1955872-56.9092522-57.4723206-57.469017h-397.0586624c-30.36697-.2292266-57.0656664 23.5318622-57.469017 57.469017v397.0586548c.4033506 33.9371643 27.102047 57.6982727 57.469017 57.4690247h397.0586548c39.276741-.5597421 56.7917252-30.2218209 57.4723282-57.4690133zm-30.0439148 0c-.2573547 10.9702454-5.690918 25.1893616-27.4284058 26.7753601h-397.0586624c-14.2870941-.1120605-26.4532223-9.7888794-26.7753372-26.7753601v-397.0586662c.3221149-16.9864655 12.4882431-26.6633015 26.7753372-26.7753372h397.0586548c21.7374878 1.5859947 27.171051 15.8051033 27.4284058 26.7753372v397.0586662z"/></svg>